<svg width="1440" height="33" viewBox="0 0 1440 33" fill="none" xmlns="http://www.w3.org/2000/svg">
<path d="M135.48 0L184.207 33.75H86.7529L135.48 0Z" fill="#D45A28"/>
<path d="M41.8451 0L90.2083 33.75H-6.51818L41.8451 0Z" fill="#D45A28"/>
<path d="M323.169 0L371.533 33.75H274.806L323.169 0Z" fill="#D45A28"/>
<path d="M229.535 0L278.262 33.75H180.809L229.535 0Z" fill="#D45A28"/>
<path d="M504.142 0L552.869 33.75H455.415L504.142 0Z" fill="#D45A28"/>
<path d="M410.506 0L458.869 33.75H362.143L410.506 0Z" fill="#D45A28"/>
<path d="M691.83 0L740.194 33.75H643.467L691.83 0Z" fill="#D45A28"/>
<path d="M598.197 0L646.923 33.75H549.47L598.197 0Z" fill="#D45A28"/>
<path d="M872.803 0L921.53 33.75H824.076L872.803 0Z" fill="#D45A28"/>
<path d="M779.167 0L827.531 33.75H730.804L779.167 0Z" fill="#D45A28"/>
<path d="M1060.49 0L1108.85 33.75H1012.13L1060.49 0Z" fill="#D45A28"/>
<path d="M966.858 0L1015.58 33.75H918.131L966.858 0Z" fill="#D45A28"/>
<path d="M1241.46 0L1290.19 33.75H1192.74L1241.46 0Z" fill="#D45A28"/>
<path d="M1147.83 0L1196.19 33.75H1099.47L1147.83 0Z" fill="#D45A28"/>
<path d="M1429.15 0L1477.52 33.75H1380.79L1429.15 0Z" fill="#D45A28"/>
<path d="M1335.52 0L1384.25 33.75H1286.79L1335.52 0Z" fill="#D45A28"/>
</svg>
